<svg width="12" height="12" viewBox="0 0 12 12" fill="none" xmlns="http://www.w3.org/2000/svg">
<path d="M8.20499 2.00012C9.17499 2.00012 9.95499 2.78512 9.95499 3.75012C9.95499 4.69512 9.20499 5.46512 8.26999 5.50012C8.2268 5.49511 8.18318 5.49511 8.13999 5.50012M9.16999 10.0001C9.52999 9.92512 9.86999 9.78012 10.15 9.56512C10.93 8.98012 10.93 8.01512 10.15 7.43012C9.87499 7.22012 9.53999 7.08012 9.18499 7.00012M4.57999 5.43512C4.52999 5.43012 4.46999 5.43012 4.41499 5.43512C3.84109 5.41563 3.29731 5.17354 2.8988 4.7601C2.50029 4.34666 2.27836 3.79434 2.27999 3.22012C2.27999 1.99512 3.26999 1.00012 4.49999 1.00012C5.0881 0.989508 5.65635 1.21296 6.07971 1.62132C6.50307 2.02968 6.74688 2.5895 6.75749 3.17762C6.76809 3.76573 6.54464 4.33398 6.13628 4.75734C5.72792 5.18071 5.1681 5.42451 4.57999 5.43512ZM2.07999 7.28012C0.869985 8.09012 0.869985 9.41012 2.07999 10.2151C3.45499 11.1351 5.70999 11.1351 7.08499 10.2151C8.29499 9.40512 8.29499 8.08512 7.08499 7.28012C5.71499 6.36512 3.45999 6.36512 2.07999 7.28012Z" stroke="#4E5378" stroke-linecap="round" stroke-linejoin="round"/>
</svg>
