<svg width="12" height="12" viewBox="0 0 12 12" fill="none" xmlns="http://www.w3.org/2000/svg">
<path d="M6.45001 1.25907L6.43501 1.29407L4.98501 4.65907H3.56001C3.22001 4.65907 2.89501 4.72907 2.60001 4.85407L3.47501 2.76407L3.49501 2.71407L3.53001 2.63407C3.54001 2.60407 3.55001 2.57407 3.56501 2.54907C4.22001 1.03407 4.96001 0.689068 6.45001 1.25907Z" stroke="#27AE60" stroke-linecap="round" stroke-linejoin="round"/>
<path d="M9.1445 4.76001C8.9195 4.69001 8.6795 4.66001 8.4395 4.66001H4.9845L6.4345 1.29501L6.4495 1.26001C6.5245 1.28501 6.5945 1.32001 6.6695 1.35001L7.7745 1.81501C8.3895 2.07001 8.8195 2.33501 9.0795 2.65501C9.1295 2.71501 9.1695 2.77001 9.2045 2.83501C9.2495 2.90501 9.2845 2.97501 9.3045 3.05001C9.3245 3.09501 9.3395 3.14001 9.3495 3.18001C9.4845 3.60001 9.4045 4.11501 9.1445 4.76001Z" stroke="#27AE60" stroke-linecap="round" stroke-linejoin="round"/>
<path d="M6 10.9999H4.05C3.93 10.9999 3.81 10.9899 3.695 10.9749C2.105 10.8699 1.255 10.0199 1.15 8.42991C1.135 8.31491 1.125 8.19491 1.125 8.07491V7.09991C1.125 6.09491 1.735 5.22991 2.605 4.85491C2.905 4.72991 3.225 4.65991 3.565 4.65991H8.445C8.69 4.65991 8.93 4.69491 9.15 4.75991C10.15 5.05991 10.88 5.99491 10.88 7.09491V8.06991C10.88 8.16991 10.875 8.26991 10.87 8.36991C10.775 10.1199 9.8 10.9999 7.95 10.9999" stroke="#27AE60" stroke-linecap="round" stroke-linejoin="round"/>
<path d="M3.47399 2.76538L2.59899 4.85538C2.16004 5.04421 1.78599 5.35743 1.52299 5.75637C1.25998 6.15532 1.11954 6.62254 1.11899 7.10038V5.63538C1.11899 4.21538 2.12899 3.03038 3.47399 2.76538ZM10.88 5.63588V7.10088C10.88 6.00088 10.15 5.06588 9.14999 4.76588C9.40999 4.11588 9.48499 3.60588 9.35999 3.18088C9.34999 3.13588 9.33499 3.09088 9.31499 3.05088C10.245 3.53088 10.88 4.51588 10.88 5.63588Z" stroke="#27AE60" stroke-linecap="round" stroke-linejoin="round"/>
</svg>
