<svg width="342" height="125" viewBox="0 0 342 125" fill="none" xmlns="http://www.w3.org/2000/svg">
<path fill-rule="evenodd" clip-rule="evenodd" d="M64.7321 57.4402C65.7963 55.5859 65.7934 53.3053 64.7243 51.4537L53.1747 31.4491C48.171 22.7824 35.6617 22.7824 30.658 31.4491L1.76106 81.5C-3.24264 90.1667 3.01199 101 13.0194 101H36.2587C38.4079 101 40.3929 99.8505 41.4627 97.9865L64.7321 57.4402ZM56.6821 92.0135C54.3866 96.0135 57.2742 101 61.8861 101H70.8132C80.8206 101 87.0753 90.1667 82.0716 81.5L77.5764 73.7142C75.2636 69.7082 69.4788 69.7157 67.1764 73.7277L56.6821 92.0135Z" fill="#632FF2"/>
<path d="M131.522 30C134.989 30 138.222 31 141.222 33C144.289 35 146.755 37.7 148.622 41.1C150.489 44.5 151.422 48.3 151.422 52.5C151.422 56.6333 150.489 60.4 148.622 63.8C146.755 67.2 144.289 69.9333 141.222 72C138.222 74 134.989 75 131.522 75H113.122L114.122 73.2V93.9C114.122 95.6333 113.589 97.1 112.522 98.3C111.455 99.4333 110.055 100 108.322 100C106.655 100 105.289 99.4333 104.222 98.3C103.155 97.1 102.622 95.6333 102.622 93.9V36.1C102.622 34.3667 103.189 32.9333 104.322 31.8C105.522 30.6 106.989 30 108.722 30H131.522ZM131.522 63.6C132.789 63.6 134.022 63.0667 135.222 62C136.422 60.9333 137.422 59.5667 138.222 57.9C139.022 56.1667 139.422 54.3667 139.422 52.5C139.422 50.5667 139.022 48.7667 138.222 47.1C137.422 45.4333 136.422 44.1 135.222 43.1C134.022 42.0333 132.789 41.5 131.522 41.5H112.922L114.122 39.7V65.2L113.022 63.6H131.522ZM212.799 73.3C212.799 78.7667 211.566 83.6 209.099 87.8C206.699 91.9333 203.433 95.1667 199.299 97.5C195.233 99.8333 190.666 101 185.599 101C180.533 101 175.933 99.8333 171.799 97.5C167.733 95.1667 164.466 91.9333 161.999 87.8C159.599 83.6 158.399 78.7667 158.399 73.3C158.399 67.8333 159.599 63.0333 161.999 58.9C164.466 54.7 167.733 51.4333 171.799 49.1C175.933 46.7 180.533 45.5 185.599 45.5C190.666 45.5 195.233 46.7 199.299 49.1C203.433 51.4333 206.699 54.7 209.099 58.9C211.566 63.0333 212.799 67.8333 212.799 73.3ZM200.799 73.3C200.799 69.9 200.099 66.9667 198.699 64.5C197.366 61.9667 195.533 60 193.199 58.6C190.933 57.2 188.399 56.5 185.599 56.5C182.799 56.5 180.233 57.2 177.899 58.6C175.633 60 173.799 61.9667 172.399 64.5C171.066 66.9667 170.399 69.9 170.399 73.3C170.399 76.6333 171.066 79.5667 172.399 82.1C173.799 84.5667 175.633 86.5 177.899 87.9C180.233 89.3 182.799 90 185.599 90C188.399 90 190.933 89.3 193.199 87.9C195.533 86.5 197.366 84.5667 198.699 82.1C200.099 79.5667 200.799 76.6333 200.799 73.3ZM234.602 93.9C234.602 95.6333 234.035 97.1 232.902 98.3C231.768 99.4333 230.335 100 228.602 100C226.868 100 225.435 99.4333 224.302 98.3C223.168 97.1 222.602 95.6333 222.602 93.9V52.6C222.602 50.8667 223.168 49.4333 224.302 48.3C225.435 47.1 226.868 46.5 228.602 46.5C230.335 46.5 231.768 47.1 232.902 48.3C234.035 49.4333 234.602 50.8667 234.602 52.6V93.9ZM228.502 40C226.235 40 224.635 39.6333 223.702 38.9C222.768 38.1667 222.302 36.8667 222.302 35V33.1C222.302 31.1667 222.802 29.8667 223.802 29.2C224.868 28.4667 226.468 28.1 228.602 28.1C230.935 28.1 232.568 28.4667 233.502 29.2C234.435 29.9333 234.902 31.2333 234.902 33.1V35C234.902 36.9333 234.402 38.2667 233.402 39C232.402 39.6667 230.768 40 228.502 40ZM275.535 45.5C280.468 45.5 284.201 46.5333 286.735 48.6C289.335 50.6667 291.101 53.4333 292.035 56.9C293.035 60.3 293.535 64.1 293.535 68.3V93.9C293.535 95.6333 292.968 97.1 291.835 98.3C290.701 99.4333 289.268 100 287.535 100C285.801 100 284.368 99.4333 283.235 98.3C282.101 97.1 281.535 95.6333 281.535 93.9V68.3C281.535 66.1 281.235 64.1333 280.635 62.4C280.101 60.6 279.101 59.1667 277.635 58.1C276.168 57.0333 274.068 56.5 271.335 56.5C268.668 56.5 266.401 57.0333 264.535 58.1C262.735 59.1667 261.335 60.6 260.335 62.4C259.401 64.1333 258.935 66.1 258.935 68.3V93.9C258.935 95.6333 258.368 97.1 257.235 98.3C256.101 99.4333 254.668 100 252.935 100C251.201 100 249.768 99.4333 248.635 98.3C247.501 97.1 246.935 95.6333 246.935 93.9V52.6C246.935 50.8667 247.501 49.4333 248.635 48.3C249.768 47.1 251.201 46.5 252.935 46.5C254.668 46.5 256.101 47.1 257.235 48.3C258.368 49.4333 258.935 50.8667 258.935 52.6V56.9L257.435 56.6C258.035 55.4667 258.901 54.2667 260.035 53C261.168 51.6667 262.501 50.4333 264.035 49.3C265.568 48.1667 267.301 47.2667 269.235 46.6C271.168 45.8667 273.268 45.5 275.535 45.5ZM307.105 47.5H330.805C332.405 47.5 333.738 48.0333 334.805 49.1C335.872 50.1667 336.405 51.5 336.405 53.1C336.405 54.6333 335.872 55.9333 334.805 57C333.738 58 332.405 58.5 330.805 58.5H307.105C305.505 58.5 304.172 57.9667 303.105 56.9C302.038 55.8333 301.505 54.5 301.505 52.9C301.505 51.3667 302.038 50.1 303.105 49.1C304.172 48.0333 305.505 47.5 307.105 47.5ZM317.805 35C319.538 35 320.938 35.6 322.005 36.8C323.138 37.9333 323.705 39.3667 323.705 41.1V85.6C323.705 86.5333 323.872 87.3 324.205 87.9C324.605 88.5 325.105 88.9333 325.705 89.2C326.372 89.4667 327.072 89.6 327.805 89.6C328.605 89.6 329.338 89.4667 330.005 89.2C330.672 88.8667 331.438 88.7 332.305 88.7C333.238 88.7 334.072 89.1333 334.805 90C335.605 90.8667 336.005 92.0667 336.005 93.6C336.005 95.4667 334.972 97 332.905 98.2C330.905 99.4 328.738 100 326.405 100C325.005 100 323.438 99.9 321.705 99.7C320.038 99.4333 318.438 98.8667 316.905 98C315.438 97.0667 314.205 95.6667 313.205 93.8C312.205 91.9333 311.705 89.3667 311.705 86.1V41.1C311.705 39.3667 312.272 37.9333 313.405 36.8C314.605 35.6 316.072 35 317.805 35Z" fill="#040B45"/>
</svg>
