<svg width="18" height="18" viewBox="0 0 18 18" fill="none" xmlns="http://www.w3.org/2000/svg">
<path d="M14.4367 13.5002H3.56324C3.11137 13.5002 2.69699 13.2725 2.45512 12.8908C2.21324 12.509 2.18324 12.0377 2.37562 11.6289L3.37499 9.61817V7.26804C3.37499 4.17842 5.72662 1.64792 8.72887 1.50654C10.2855 1.43604 11.7589 1.98317 12.882 3.05454C14.0062 4.12667 14.625 5.57229 14.625 7.12517V9.61817L15.6187 11.618C15.8164 12.0377 15.7867 12.5094 15.5449 12.8912C15.303 13.2729 14.8886 13.5002 14.4367 13.5002ZM8.75549 2.06867H8.75924H8.75549ZM6.78374 14.2502C6.96299 15.3125 7.88699 16.1252 8.99999 16.1252C10.113 16.1252 11.0366 15.3125 11.2162 14.2502H6.78374Z" fill="white"/>
<circle cx="14" cy="4" r="2.5" fill="#FFB649" stroke="white"/>
</svg>
