<svg width="12" height="12" viewBox="0 0 12 12" fill="none" xmlns="http://www.w3.org/2000/svg">
<path d="M4.405 1L2.595 2.815M7.595 1L9.405 2.815" stroke="#632FF2" stroke-miterlimit="10" stroke-linecap="round" stroke-linejoin="round"/>
<path d="M1 3.92505C1 3.00005 1.495 2.92505 2.11 2.92505H9.89C10.505 2.92505 11 3.00005 11 3.92505C11 5.00005 10.505 4.92505 9.89 4.92505H2.11C1.495 4.92505 1 5.00005 1 3.92505Z" stroke="#632FF2"/>
<path d="M4.88 7V8.775M7.18 7V8.775M1.75 5L2.455 9.32C2.615 10.29 3 11 4.43 11H7.445C9 11 9.23 10.32 9.41 9.38L10.25 5" stroke="#632FF2" stroke-linecap="round"/>
</svg>
