<svg width="12" height="12" viewBox="0 0 12 12" fill="none" xmlns="http://www.w3.org/2000/svg">
<path d="M5.99999 1V4.5M5.99999 4.5L6.99999 3.5M5.99999 4.5L4.99999 3.5M0.98999 6.5H3.19499C3.38499 6.5 3.55499 6.605 3.63999 6.775L4.22499 7.945C4.30778 8.11161 4.4354 8.25181 4.59351 8.34986C4.75162 8.44791 4.93395 8.4999 5.11999 8.5H6.88499C7.07103 8.4999 7.25336 8.44791 7.41147 8.34986C7.56958 8.25181 7.6972 8.11161 7.77999 7.945L8.36499 6.775C8.40654 6.69254 8.47011 6.6232 8.54866 6.57466C8.6272 6.52612 8.71766 6.50028 8.80999 6.5H10.99" stroke="#EB5757" stroke-linecap="round" stroke-linejoin="round"/>
<path d="M1.3455 9.49945C1.8255 10.5495 2.8255 10.9995 4.5005 10.9995H7.5005C10.0005 10.9995 11.0005 9.99945 11.0005 7.49945V5.49945C11.0005 3.36445 10.2705 2.32445 8.5005 2.06445M3.5 2.06445C1.73 2.32445 1 3.36445 1 5.49945V7.49945" stroke="#EB5757" stroke-linecap="round" stroke-linejoin="round"/>
</svg>
