<svg width="12" height="12" viewBox="0 0 12 12" fill="none" xmlns="http://www.w3.org/2000/svg">
<path d="M1 6.505V7.5C1 10 2 11 4.5 11H7.5C10 11 11 10 11 7.5V4.5C11 2 10 1 7.5 1H4.5C2 1 1 2 1 4.5" stroke="#F2994A" stroke-linecap="round" stroke-linejoin="round"/>
<path d="M8.75 5.785V8.25C8.75 8.51522 8.64464 8.76957 8.45711 8.95711C8.26957 9.14464 8.01522 9.25 7.75 9.25C7.48478 9.25 7.23043 9.14464 7.04289 8.95711C6.85536 8.76957 6.75 8.51522 6.75 8.25V3.75C6.75 3.2 7.2 2.75 7.75 2.75C8.3 2.75 8.75 3.2 8.75 3.75M4.25 9.25C4.8 9.25 5.25 8.8 5.25 8.25V6.5C5.25 5.95 4.8 5.5 4.25 5.5C3.7 5.5 3.25 5.95 3.25 6.5V8.25C3.25 8.51522 3.35536 8.76957 3.54289 8.95711C3.73043 9.14464 3.98478 9.25 4.25 9.25Z" stroke="#F2994A" stroke-linecap="round" stroke-linejoin="round"/>
</svg>
