<svg width="10" height="12" viewBox="0 0 10 12" fill="none" xmlns="http://www.w3.org/2000/svg">
<path d="M1.5 4.98V6M8.5 6V3C8.5 1.895 8.5 1 6.5 1H3.5C1.5 1 1.5 1.895 1.5 3M2.5 6C0.5 6 0.5 6.895 0.5 8V8.5C0.5 9.88 0.5 11 3 11H7C9 11 9.5 9.88 9.5 8.5V8C9.5 6.895 9.5 6 7.5 6C7 6 6.86 6.105 6.6 6.3L6.09 6.84C5.94979 6.98914 5.78052 7.108 5.59263 7.18924C5.40474 7.27048 5.2022 7.3124 4.9975 7.3124C4.7928 7.3124 4.59026 7.27048 4.40237 7.18924C4.21448 7.108 4.04521 6.98914 3.905 6.84L3.4 6.3C3.14 6.105 3 6 2.5 6Z" stroke="#F2994A" stroke-miterlimit="10" stroke-linecap="round" stroke-linejoin="round"/>
<path d="M4.164 4.6001H5.829M5.83 3.1001H6.25M3.75 3.1001H4.54" stroke="#F2994A" stroke-linecap="round" stroke-linejoin="round"/>
</svg>
