<svg width="12" height="12" viewBox="0 0 12 12" fill="none" xmlns="http://www.w3.org/2000/svg">
<path d="M4.75 6.875C4.75 7.36 5.125 7.75 5.585 7.75H6.525C6.925 7.75 7.25 7.41 7.25 6.985C7.25 6.53 7.05 6.365 6.755 6.26L5.25 5.735C4.955 5.63 4.755 5.47 4.755 5.01C4.755 4.59 5.08 4.245 5.48 4.245H6.42C6.88 4.245 7.255 4.635 7.255 5.12M6 3.75V8.25" stroke="#EB5757" stroke-linecap="round" stroke-linejoin="round"/>
<path d="M11 6C11 8.76 8.76 11 6 11C3.24 11 1 8.76 1 6C1 3.24 3.24 1 6 1" stroke="#EB5757" stroke-linecap="round" stroke-linejoin="round"/>
</svg>
