<svg width="73" height="63" viewBox="0 0 73 63" fill="none" xmlns="http://www.w3.org/2000/svg">
<path d="M37.8698 14.7983C34.095 8.63383 26.2127 6.08321 19.4503 9.12886C14.2151 11.4867 11.0457 16.595 11.1417 22.3531C7.61066 25.4103 6.28925 30.6391 8.15429 34.7802C10.513 40.0173 16.6926 42.3591 21.9297 40.0004L42.825 30.5897C47.0154 28.7024 48.8885 23.7598 47.0012 19.5693C45.3928 15.9981 41.5604 14.1095 37.8698 14.7983Z" fill="#C2A3FD"/>
<path d="M35.1302 14.8593C38.905 8.69487 46.7873 6.14424 53.5497 9.1899C58.7849 11.5477 61.9543 16.656 61.8583 22.4141C65.3893 25.4713 66.7108 30.7002 64.8457 34.8412C62.487 40.0783 56.3074 42.4201 51.0703 40.0615L30.175 30.6507C25.9846 28.7634 24.1115 23.8208 25.9988 19.6304C27.6072 16.0592 31.4396 14.1705 35.1302 14.8593Z" fill="#C2A3FD"/>
<path d="M63.1135 29.9101C61.8753 20.1578 53.5255 12.5928 43.4388 12.5928C35.6301 12.5928 28.8471 17.1573 25.7503 24.3511C19.6643 26.1701 15.1055 31.9161 15.1055 38.0928C15.1055 45.9043 21.4606 52.2594 29.2721 52.2594H60.4388C66.6891 52.2594 71.7721 47.1764 71.7721 40.9261C71.7721 35.5994 68.0746 31.1171 63.1135 29.9101Z" fill="white"/>
<g clip-path="url(#clip0_24_444)">
<path d="M56.3626 45.1153L43.8618 32.6082C43.7443 32.4907 43.5856 32.4258 43.4195 32.4258C43.2533 32.4258 43.0945 32.492 42.9771 32.6095L30.5138 45.1153C30.335 45.294 30.2826 45.5626 30.3788 45.7963C30.4763 46.03 30.7037 46.1812 30.9561 46.1812H37.8288V61.801C37.8288 62.1459 38.1087 62.4258 38.4536 62.4258H48.4503C48.7952 62.4258 49.0751 62.1459 49.0751 61.801V46.1812H55.9215C56.1739 46.1812 56.4014 46.0287 56.4988 45.795C56.5963 45.5614 56.5413 45.294 56.3626 45.1153Z" fill="#7F3DFF"/>
</g>
<defs>
<clipPath id="clip0_24_444">
<rect width="30" height="30" fill="white" transform="translate(28.439 32.4258)"/>
</clipPath>
</defs>
</svg>
