<svg width="29" height="27" viewBox="0 0 29 27" fill="none" xmlns="http://www.w3.org/2000/svg">
<path d="M3.66663 0.666656C2.01329 0.666656 0.666626 2.01332 0.666626 3.66666V19C0.666626 20.6533 2.01329 22 3.66663 22H13.0872C12.8805 21.36 12.7471 20.6933 12.7005 20H3.66663C3.11329 20 2.66663 19.5533 2.66663 19V3.66666C2.66663 3.11332 3.11329 2.66666 3.66663 2.66666H24.3333C24.8866 2.66666 25.3333 3.11332 25.3333 3.66666V11.6471C26.0666 12.0271 26.74 12.5139 27.3333 13.0872V3.66666C27.3333 2.01332 25.9866 0.666656 24.3333 0.666656H3.66663ZM8.66663 6.66666C8.13619 6.66666 7.62749 6.87737 7.25241 7.25244C6.87734 7.62752 6.66663 8.13622 6.66663 8.66666C6.66663 9.19709 6.87734 9.7058 7.25241 10.0809C7.62749 10.4559 8.13619 10.6667 8.66663 10.6667C9.19706 10.6667 9.70577 10.4559 10.0808 10.0809C10.4559 9.7058 10.6666 9.19709 10.6666 8.66666C10.6666 8.13622 10.4559 7.62752 10.0808 7.25244C9.70577 6.87737 9.19706 6.66666 8.66663 6.66666ZM15.6666 7.99999C15.5341 7.99812 15.4026 8.0226 15.2796 8.07201C15.1566 8.12143 15.0447 8.19479 14.9503 8.28783C14.856 8.38088 14.781 8.49175 14.7299 8.614C14.6787 8.73626 14.6524 8.86747 14.6524 8.99999C14.6524 9.13251 14.6787 9.26372 14.7299 9.38598C14.781 9.50823 14.856 9.61911 14.9503 9.71215C15.0447 9.80519 15.1566 9.87856 15.2796 9.92797C15.4026 9.97738 15.5341 10.0019 15.6666 9.99999H21.6666C21.7991 10.0019 21.9307 9.97738 22.0537 9.92797C22.1766 9.87856 22.2886 9.80519 22.3829 9.71215C22.4773 9.61911 22.5522 9.50823 22.6034 9.38598C22.6545 9.26372 22.6809 9.13251 22.6809 8.99999C22.6809 8.86747 22.6545 8.73626 22.6034 8.614C22.5522 8.49175 22.4773 8.38088 22.3829 8.28783C22.2886 8.19479 22.1766 8.12143 22.0537 8.07201C21.9307 8.0226 21.7991 7.99812 21.6666 7.99999H15.6666ZM6.33329 12C5.78129 12 5.33329 12.448 5.33329 13C5.33329 14 5.33355 16 8.60022 16H8.73303C11.9997 16 12 14 12 13C12 12.448 11.552 12 11 12H6.33329ZM21.3333 12C17.2833 12 14 15.2833 14 19.3333C14 23.3833 17.2833 26.6667 21.3333 26.6667C25.3833 26.6667 28.6666 23.3833 28.6666 19.3333C28.6666 15.2833 25.3833 12 21.3333 12ZM25.3333 16C25.5038 16 25.6743 16.065 25.8046 16.1953C26.0653 16.456 26.0653 16.8773 25.8046 17.138L20.4713 22.4713C20.3413 22.6013 20.1706 22.6667 20 22.6667C19.8293 22.6667 19.6586 22.6013 19.5286 22.4713L16.8619 19.8047C16.6013 19.544 16.6013 19.1226 16.8619 18.862C17.1226 18.6013 17.544 18.6013 17.8046 18.862L20 21.0573L24.8619 16.1953C24.9923 16.065 25.1628 16 25.3333 16Z" fill="#7F3DFF"/>
</svg>
